<?xml version="1.0" encoding="utf-8"?>
<!-- Generator: Adobe Illustrator 21.1.0, SVG Export Plug-In . SVG Version: 6.00 Build 0)  -->
<svg version="1.1" id="one" xmlns="http://www.w3.org/2000/svg" xmlns:xlink="http://www.w3.org/1999/xlink" x="0px" y="0px"
	 viewBox="0 0 150 150" style="enable-background:new 0 0 150 150;" xml:space="preserve">
<style type="text/css">
	.st0{fill:#FFFFFF;}
	.st1{fill:none;stroke:#000000;stroke-miterlimit:10;}
	.st2{fill:none;stroke:#000000;stroke-width:1.0693;stroke-miterlimit:10;}
	.st3{fill:none;stroke:#000000;stroke-width:0.708;stroke-miterlimit:10;}
	.st4{fill:#FFFFFF;stroke:#000000;stroke-miterlimit:10;}
</style>
<circle class="st0" cx="75" cy="75" r="73.9"/>
<path class="st1" d="M92.5,106H53.9c0,0-4.8-3.6-2-13c2.8-9.4,10.3-34.5,10.3-34.5v-8.9h24v8.9c0,0,6,24.1,11,34.1
	c1,2,2.3,3.8,2.5,5.3C100.2,102.3,96.8,106,92.5,106z"/>
<path class="st3" d="M89.8,100H59.6c0,0-3.5-2.5-1.5-8.9c2.1-6.4,7.5-22.3,7.5-22.3L84.4,75c0,0,3.2,9,6.9,15.9S89.8,100,89.8,100z"
	/>
<line class="st1" x1="57.5" y1="44" x2="92.5" y2="44"/>
</svg>
