<?xml version="1.0" encoding="utf-8"?>
<!-- Generator: Adobe Illustrator 21.1.0, SVG Export Plug-In . SVG Version: 6.00 Build 0)  -->
<svg version="1.1" id="one" xmlns="http://www.w3.org/2000/svg" xmlns:xlink="http://www.w3.org/1999/xlink" x="0px" y="0px"
	 viewBox="0 0 150 150" style="enable-background:new 0 0 150 150;" xml:space="preserve">
<style type="text/css">
	.st0{fill:#FFFFFF;}
	.st1{fill:none;stroke:#000000;stroke-miterlimit:10;}
	.st2{fill:none;stroke:#000000;stroke-width:1.0693;stroke-miterlimit:10;}
	.st3{fill:none;stroke:#000000;stroke-width:0.708;stroke-miterlimit:10;}
	.st4{fill:#FFFFFF;stroke:#000000;stroke-miterlimit:10;}
</style>
<circle class="st0" cx="75" cy="75" r="73.9"/>
<g>
	<rect x="66.8" y="38.5" transform="matrix(0.7071 0.7071 -0.7071 0.7071 75 -31.066)" class="st4" width="16.5" height="73.1"/>
	<polygon class="st4" points="49.4,59.2 58,51 92,83.9 100.2,101.5 83,93 	"/>
	<line class="st1" x1="62.9" y1="55.8" x2="54.6" y2="64.4"/>
	<line class="st1" x1="92" y1="83.9" x2="83" y2="93"/>
	<line class="st1" x1="53.5" y1="98.2" x2="58.8" y2="102.9"/>
	<line class="st1" x1="56.5" y1="94.8" x2="61.8" y2="99.6"/>
	<line class="st1" x1="60.5" y1="90.5" x2="65.7" y2="95.2"/>
	<line class="st1" x1="68.4" y1="84.3" x2="72.3" y2="87.8"/>
	<line class="st1" x1="63.1" y1="86" x2="69.3" y2="91.6"/>
	<line class="st1" x1="84" y1="69" x2="88.5" y2="73.2"/>
	<line class="st1" x1="86.3" y1="64" x2="92.3" y2="69.4"/>
	<line class="st1" x1="90.9" y1="62.4" x2="95.6" y2="66"/>
	<line class="st1" x1="94" y1="57.2" x2="99.6" y2="62.1"/>
	<line class="st1" x1="98.4" y1="55" x2="102" y2="59.6"/>
</g>
</svg>
